<?xml version="1.0" standalone="no"?>
<!DOCTYPE svg PUBLIC "-//W3C//DTD SVG 20010904//EN"
 "http://www.w3.org/TR/2001/REC-SVG-20010904/DTD/svg10.dtd">
<svg version="1.0" xmlns="http://www.w3.org/2000/svg"
 width="500.000000pt" height="500.000000pt" viewBox="0 0 500.000000 500.000000"
 preserveAspectRatio="xMidYMid meet">

<g transform="translate(0.000000,500.000000) scale(0.100000,-0.100000)"
fill="#000000" stroke="none">
<path d="M890 4483 c0 -5 15 -75 33 -158 l34 -150 437 -3 c344 -2 437 0 440
10 2 7 16 69 31 138 14 69 29 135 32 148 l5 22 -506 0 c-278 0 -506 -3 -506
-7z"/>
<path d="M962 3938 l3 -163 95 0 95 0 5 -1350 c6 -1501 0 -1380 76 -1526 27
-52 64 -100 124 -160 75 -75 100 -93 191 -137 133 -65 197 -81 340 -89 140 -7
253 8 363 48 222 81 381 236 451 439 l29 85 4 328 4 327 46 0 c83 0 135 47
146 130 8 63 -7 118 -43 153 -25 26 -40 31 -91 35 l-60 4 0 203 c0 193 1 204
23 235 12 19 38 43 57 54 33 20 54 21 328 24 l292 3 0 -105 0 -106 145 0 145
0 -2 438 -3 437 -142 3 -142 3 -3 -118 -3 -118 -450 -5 c-418 -5 -453 -7 -499
-25 -64 -26 -141 -96 -172 -156 -51 -102 -57 -143 -61 -465 l-5 -302 -56 -4
c-48 -4 -60 -10 -88 -40 -36 -40 -50 -95 -39 -158 12 -72 71 -120 150 -120
l35 0 0 -287 c0 -168 -4 -304 -10 -325 -16 -56 -68 -117 -130 -152 -52 -29
-61 -31 -160 -31 -99 0 -108 2 -160 31 -34 19 -68 50 -90 80 l-35 48 -3 1333
-2 1333 85 0 85 0 0 165 0 165 -435 0 -435 0 2 -162z m263 -1238 c3 -6 20 -17
36 -26 28 -14 33 -13 86 10 68 32 72 32 133 1 27 -14 55 -25 62 -25 8 0 30 11
50 25 20 14 40 25 43 25 4 0 5 -359 3 -797 -3 -895 -8 -829 70 -908 40 -40
123 -85 159 -85 30 0 37 -16 19 -42 -20 -28 -20 -56 -1 -101 13 -33 13 -38
-10 -83 -14 -27 -25 -52 -25 -57 0 -4 11 -25 25 -47 14 -22 25 -42 25 -45 0
-12 -93 -4 -166 15 -218 56 -393 188 -482 365 -60 119 -62 138 -62 637 0 565
11 1148 21 1148 4 0 11 -5 14 -10z m1186 -1699 c51 -52 36 -133 -30 -161 -98
-40 -177 85 -102 161 41 40 91 40 132 0z m-197 -37 c9 -8 16 -21 16 -27 0 -20
-30 -57 -46 -57 -10 0 -3 -10 17 -27 121 -102 44 -303 -116 -303 -67 0 -127
36 -154 93 -40 82 -21 163 52 221 32 26 47 30 97 31 37 0 55 4 49 10 -14 14
-11 36 8 57 20 22 56 23 77 2z m330 -96 c20 -56 -57 -94 -89 -44 -27 41 -2 78
50 74 22 -2 32 -10 39 -30z m-125 -74 c28 -35 26 -69 -4 -99 -50 -51 -125 -18
-125 55 0 29 6 43 22 54 35 25 83 20 107 -10z"/>
<path d="M1516 1184 c-21 -20 -20 -37 2 -57 24 -22 35 -21 57 3 38 42 -19 94
-59 54z"/>
<path d="M1357 1094 c-4 -4 -7 -20 -7 -35 0 -31 26 -45 61 -34 16 5 19 14 17
38 -3 27 -7 32 -33 35 -17 2 -34 0 -38 -4z"/>
<path d="M1511 1013 c-43 -21 -76 -89 -65 -136 15 -68 62 -107 129 -107 52 0
92 27 117 78 18 38 19 49 9 82 -16 54 -71 100 -119 100 -20 0 -52 -8 -71 -17z"/>
<path d="M1730 793 c-48 -18 -68 -84 -34 -117 54 -55 143 0 119 73 -5 17 -54
54 -67 50 -2 0 -10 -3 -18 -6z"/>
<path d="M3795 3238 c-3 -7 -4 -204 -3 -438 l3 -425 158 -3 c86 -1 157 1 157
5 1 14 1 807 0 841 l0 32 -155 0 c-115 0 -157 -3 -160 -12z"/>
</g>
</svg>
