<?xml version="1.0" standalone="no"?>
<!DOCTYPE svg PUBLIC "-//W3C//DTD SVG 20010904//EN"
 "http://www.w3.org/TR/2001/REC-SVG-20010904/DTD/svg10.dtd">
<svg version="1.0" xmlns="http://www.w3.org/2000/svg"
 width="481.000000pt" height="519.000000pt" viewBox="0 0 481.000000 519.000000"
 preserveAspectRatio="xMidYMid meet">

<g transform="translate(0.000000,519.000000) scale(0.100000,-0.100000)"
fill="#000000" stroke="none">
<path d="M2358 4379 c-10 -5 -22 -26 -28 -47 -11 -40 -14 -538 -4 -590 18 -89
123 -99 155 -15 13 35 12 573 -2 612 -6 17 -19 36 -29 41 -24 13 -70 12 -92
-1z"/>
<path d="M988 3800 c-53 -53 -44 -66 196 -307 235 -235 253 -247 309 -203 21
17 27 30 27 60 0 36 -9 48 -182 223 -275 278 -289 287 -350 227z"/>
<path d="M3696 3791 c-25 -21 -126 -121 -226 -222 -179 -180 -181 -183 -178
-222 4 -53 41 -82 90 -73 27 5 76 49 251 224 240 241 244 247 188 303 -40 40
-70 37 -125 -10z"/>
<path d="M2235 3243 c-315 -67 -567 -295 -662 -598 l-28 -90 -5 -485 -5 -485
-100 -5 c-107 -5 -142 -20 -164 -68 -6 -13 -11 -89 -11 -177 l0 -155 1151 0
1151 0 -4 153 c-4 167 -11 190 -62 225 -27 19 -45 22 -123 22 l-91 0 -4 468
c-5 499 -5 498 -61 660 -48 139 -223 347 -357 425 -193 111 -426 153 -625 110z
m242 -153 c297 -34 541 -243 614 -528 17 -69 19 -113 19 -529 l0 -453 -706 0
-705 0 4 478 c4 521 1 499 66 635 102 214 313 365 553 396 34 5 65 9 68 10 3
0 42 -3 87 -9z"/>
<path d="M2440 2950 c-11 -11 -23 -32 -26 -47 -12 -45 14 -75 90 -105 141 -57
249 -164 316 -312 16 -36 39 -70 49 -76 33 -17 71 -11 98 16 21 21 25 32 20
62 -12 96 -110 246 -220 341 -70 60 -228 141 -276 141 -18 0 -39 -8 -51 -20z"/>
<path d="M443 2538 c-31 -15 -48 -70 -32 -100 25 -47 27 -47 352 -48 262 0
311 2 331 16 47 30 41 109 -10 133 -33 15 -610 14 -641 -1z"/>
<path d="M3723 2538 c-47 -23 -53 -103 -10 -133 30 -21 632 -22 659 -1 45 34
40 113 -8 135 -33 15 -610 14 -641 -1z"/>
</g>
</svg>
