<?xml version="1.0" standalone="no"?>
<!DOCTYPE svg PUBLIC "-//W3C//DTD SVG 20010904//EN"
 "http://www.w3.org/TR/2001/REC-SVG-20010904/DTD/svg10.dtd">
<svg version="1.0" xmlns="http://www.w3.org/2000/svg"
 width="481.000000pt" height="519.000000pt" viewBox="0 0 481.000000 519.000000"
 preserveAspectRatio="xMidYMid meet">

<g transform="translate(0.000000,519.000000) scale(0.100000,-0.100000)"
fill="#000000" stroke="none">
<path d="M1970 4676 c-76 -17 -126 -40 -176 -81 l-42 -35 -294 0 c-273 0 -296
-2 -338 -21 -72 -32 -106 -65 -139 -130 -38 -76 -42 -168 -11 -237 25 -55 110
-138 158 -153 24 -8 144 -14 337 -16 288 -4 301 -5 323 -26 22 -20 22 -25 22
-254 l0 -233 -107 0 c-122 0 -172 -16 -231 -73 -54 -51 -74 -102 -81 -197 l-6
-85 -217 -3 -218 -2 0 45 c0 81 -41 149 -120 198 -34 21 -45 22 -292 22 -234
0 -259 -2 -275 -18 -17 -17 -18 -61 -21 -718 l-2 -700 25 -25 25 -25 258 3
257 3 42 28 c66 45 95 97 102 186 l6 76 1140 0 c1091 0 1142 -1 1195 -19 106
-36 183 -110 227 -215 21 -53 23 -68 23 -311 l0 -255 -28 -16 c-52 -29 -62
-70 -62 -241 0 -175 10 -208 72 -240 33 -18 62 -18 502 -12 447 7 469 8 493
27 44 35 53 74 53 227 0 160 -9 193 -63 234 l-36 28 -3 451 c-4 431 -5 456
-26 529 -54 188 -139 334 -270 460 -125 121 -255 196 -432 249 -72 22 -95 23
-550 28 l-475 6 -6 85 c-6 101 -28 150 -93 207 -58 51 -101 63 -225 63 l-101
0 0 233 c0 229 0 234 23 254 21 21 34 22 322 25 288 3 302 4 350 26 64 29 100
64 133 127 22 42 27 63 27 130 0 67 -5 88 -27 130 -33 63 -59 87 -128 119
l-55 26 -296 0 -296 0 -22 24 c-32 34 -138 83 -207 95 -69 13 -73 13 -144 -3z
m163 -157 c51 -14 110 -69 141 -132 45 -89 31 -186 -37 -263 -57 -64 -107 -88
-187 -88 -227 0 -333 273 -167 432 59 57 158 77 250 51z m-478 -239 l0 -130
-220 0 c-247 0 -270 5 -312 69 -28 42 -29 86 -3 129 34 56 59 61 310 62 l225
0 0 -130z m1270 116 c44 -19 68 -57 69 -111 1 -52 -24 -92 -75 -117 -29 -16
-64 -18 -257 -18 l-223 0 8 53 c10 65 10 99 1 160 l-8 47 226 0 c171 0 233 -3
259 -14z m-795 -709 l0 -198 -82 3 -83 3 0 43 c1 23 2 111 3 195 l2 152 80 0
80 0 0 -198z m391 -386 c37 -37 39 -41 39 -105 l0 -66 -507 2 -508 3 0 68 c0
66 1 70 37 103 l38 34 431 0 431 0 39 -39z m-1768 -63 c47 -25 46 -13 47 -586
l0 -543 -25 -24 c-24 -25 -27 -25 -200 -25 l-175 0 0 595 0 595 166 0 c106 0
173 -4 187 -12z m2881 -272 c87 -17 204 -57 256 -88 191 -115 318 -268 380
-458 46 -137 51 -207 48 -625 l-3 -380 -307 -3 -308 -2 0 232 c0 165 -5 253
-15 302 -30 142 -140 287 -267 352 -131 66 -75 64 -1330 64 l-1138 0 0 310 0
310 1304 0 c1098 0 1316 -2 1380 -14z m776 -1816 l0 -110 -405 0 -405 0 0 110
0 110 405 0 405 0 0 -110z"/>
</g>
</svg>
