<?xml version="1.0" standalone="no"?>
<!DOCTYPE svg PUBLIC "-//W3C//DTD SVG 20010904//EN"
 "http://www.w3.org/TR/2001/REC-SVG-20010904/DTD/svg10.dtd">
<svg version="1.0" xmlns="http://www.w3.org/2000/svg"
 width="481.000000pt" height="519.000000pt" viewBox="0 0 481.000000 519.000000"
 preserveAspectRatio="xMidYMid meet">

<g transform="translate(0.000000,519.000000) scale(0.100000,-0.100000)"
fill="#000000" stroke="none">
<path d="M772 4360 l3 -210 33 -32 32 -33 360 -3 360 -3 0 -252 c0 -199 3
-257 14 -272 14 -21 111 -88 366 -254 160 -105 188 -115 243 -90 50 22 73 105
44 157 -13 22 -103 86 -330 232 l-117 75 0 203 0 202 640 0 640 0 0 -202 -1
-203 -125 -80 c-267 -171 -322 -213 -333 -250 -14 -51 3 -102 42 -125 62 -38
89 -29 257 81 273 179 352 234 366 254 11 15 14 72 14 272 l0 252 345 3 345 3
32 33 33 32 3 210 3 210 -1636 0 -1636 0 3 -210z"/>
<path d="M2358 3628 c-47 -39 -48 -47 -48 -345 l0 -283 -195 0 c-288 0 -295
-5 -295 -220 l0 -120 600 0 600 0 0 130 0 130 -34 38 -34 37 -211 3 -211 3 0
284 0 284 -31 36 c-27 31 -37 35 -78 35 -26 0 -54 -6 -63 -12z"/>
<path d="M1824 2395 c-253 -83 -328 -159 -276 -279 29 -64 70 -88 144 -83 65
4 96 26 128 87 24 48 112 290 108 300 -2 5 -48 -7 -104 -25z"/>
<path d="M2930 2371 c88 -280 129 -341 230 -341 152 0 206 191 78 272 -50 31
-176 82 -264 108 l-61 18 17 -57z"/>
<path d="M2368 2303 c-79 -170 -101 -233 -95 -275 14 -101 113 -155 211 -114
67 28 99 103 76 179 -16 54 -132 307 -140 307 -4 0 -27 -44 -52 -97z"/>
<path d="M1205 1708 c-22 -5 -87 -21 -145 -35 -150 -35 -200 -79 -200 -177 0
-39 6 -52 36 -86 73 -81 171 -73 237 18 35 47 147 263 147 282 0 12 -21 11
-75 -2z"/>
<path d="M3560 1715 c0 -17 123 -252 153 -291 53 -71 116 -88 186 -52 61 31
83 64 84 125 1 66 -26 111 -83 139 -62 30 -340 95 -340 79z"/>
<path d="M1747 1488 c-100 -98 -127 -131 -136 -164 -26 -98 41 -184 144 -184
84 0 135 46 148 135 8 47 -11 316 -23 328 -4 5 -64 -47 -133 -115z"/>
<path d="M2956 1572 c-3 -20 -9 -96 -13 -169 -7 -157 6 -208 61 -243 64 -39
159 -22 205 36 24 30 29 120 10 157 -17 32 -134 154 -200 209 l-56 48 -7 -38z"/>
<path d="M2397 1470 c-44 -75 -120 -261 -124 -304 -12 -122 127 -199 234 -129
92 59 87 132 -27 362 l-57 115 -26 -44z"/>
</g>
</svg>
