<?xml version="1.0" standalone="no"?>
<!DOCTYPE svg PUBLIC "-//W3C//DTD SVG 20010904//EN"
 "http://www.w3.org/TR/2001/REC-SVG-20010904/DTD/svg10.dtd">
<svg version="1.0" xmlns="http://www.w3.org/2000/svg"
 width="481.000000pt" height="519.000000pt" viewBox="0 0 481.000000 519.000000"
 preserveAspectRatio="xMidYMid meet">

<g transform="translate(0.000000,519.000000) scale(0.100000,-0.100000)"
fill="#000000" stroke="none">
<path d="M1366 4264 c-11 -10 -16 -34 -16 -75 l0 -59 -180 0 -180 0 0 -420 0
-420 180 0 180 0 0 -59 c0 -86 9 -91 183 -91 76 0 147 5 158 10 16 9 19 22 19
75 l0 65 314 0 315 0 7 23 c4 12 17 45 29 72 52 117 65 148 61 154 -3 3 -36
29 -75 56 -234 164 -261 190 -261 249 0 12 25 80 55 150 30 70 55 129 55 132
0 2 -112 4 -250 4 l-250 0 0 63 c0 36 -5 68 -12 75 -8 8 -59 12 -164 12 -125
0 -155 -3 -168 -16z"/>
<path d="M3112 4268 c-7 -7 -12 -39 -12 -75 l0 -63 -313 0 -314 0 -48 -112
c-26 -62 -49 -118 -51 -123 -3 -6 30 -35 72 -65 255 -183 264 -192 264 -246 0
-28 -13 -61 -79 -209 -10 -22 -22 -50 -25 -62 l-7 -23 250 0 251 0 0 -65 c0
-53 3 -66 19 -75 11 -5 82 -10 158 -10 174 0 183 5 183 91 l0 59 180 0 180 0
0 420 0 420 -180 0 -180 0 0 59 c0 90 -3 91 -184 91 -105 0 -156 -4 -164 -12z"/>
<path d="M3429 2821 c-38 -30 -31 -79 19 -139 23 -27 42 -52 42 -56 0 -3 15
-29 34 -58 48 -76 73 -139 102 -251 70 -278 28 -535 -129 -792 -6 -11 -29 -41
-50 -67 -49 -62 -56 -96 -25 -132 28 -33 88 -39 118 -11 23 21 106 142 148
216 42 75 97 243 118 360 21 119 14 317 -15 434 -46 187 -136 368 -235 473
-46 48 -87 56 -127 23z"/>
<path d="M2340 2703 c-108 -135 -175 -249 -226 -383 -25 -68 -28 -87 -28 -210
-1 -129 0 -137 26 -180 88 -150 265 -213 418 -150 60 24 147 106 175 165 34
74 34 239 -1 350 -24 76 -110 243 -157 307 -141 190 -138 188 -207 101z m20
-582 c137 -92 108 -251 -38 -212 -47 13 -107 74 -117 120 -23 105 61 155 155
92z"/>
<path d="M3194 2575 c-16 -7 -35 -24 -42 -39 -14 -31 -5 -59 38 -120 40 -57
87 -178 100 -261 24 -146 -26 -343 -118 -463 -34 -45 -33 -88 2 -119 40 -34
73 -30 118 17 46 49 119 199 142 290 47 194 23 377 -74 563 -63 121 -108 157
-166 132z"/>
<path d="M2943 2330 c-49 -20 -55 -72 -17 -155 23 -49 26 -67 22 -124 -3 -40
-14 -83 -27 -108 -11 -23 -21 -55 -21 -71 0 -62 86 -96 131 -51 12 12 32 46
47 77 21 49 25 72 26 162 1 124 -18 192 -69 245 -33 36 -53 41 -92 25z"/>
<path d="M1498 2096 c-77 -93 -147 -214 -181 -314 -25 -72 -31 -103 -31 -182
-1 -81 3 -102 23 -144 52 -106 132 -156 251 -156 91 0 141 21 200 81 70 72 75
88 74 224 -1 105 -4 129 -28 190 -28 74 -89 182 -142 252 -48 65 -92 113 -103
113 -6 0 -34 -29 -63 -64z m42 -494 c38 -28 63 -86 56 -127 -8 -43 -36 -59
-88 -52 -48 6 -84 38 -110 95 -16 36 -17 46 -6 69 26 54 86 60 148 15z"/>
</g>
</svg>
