<?xml version="1.0" standalone="no"?>
<!DOCTYPE svg PUBLIC "-//W3C//DTD SVG 20010904//EN"
 "http://www.w3.org/TR/2001/REC-SVG-20010904/DTD/svg10.dtd">
<svg version="1.0" xmlns="http://www.w3.org/2000/svg"
 width="481.000000pt" height="519.000000pt" viewBox="0 0 481.000000 519.000000"
 preserveAspectRatio="xMidYMid meet">

<g transform="translate(0.000000,519.000000) scale(0.100000,-0.100000)"
fill="#000000" stroke="none">
<path d="M2045 4314 c-68 -11 -204 -48 -258 -70 -249 -104 -451 -333 -535
-606 -38 -123 -42 -198 -42 -883 l0 -663 -30 -26 c-49 -41 -129 -56 -195 -37
-17 4 -64 34 -105 65 -185 139 -408 127 -410 -22 0 -69 51 -117 137 -128 55
-8 92 -26 181 -89 108 -76 232 -100 366 -71 74 17 96 28 218 115 33 24 61 35
97 39 78 7 116 -5 187 -59 81 -63 130 -85 222 -101 125 -21 266 15 365 95 64
52 100 67 162 67 61 0 98 -15 160 -64 66 -53 106 -73 183 -91 114 -28 267 -6
344 50 153 110 147 107 224 103 58 -3 78 -8 110 -31 130 -92 158 -106 231
-123 131 -29 255 -6 363 69 103 71 134 87 169 87 48 0 113 34 134 69 20 34 22
86 3 119 -23 42 -66 62 -132 62 -95 0 -177 -30 -269 -100 -85 -64 -129 -78
-204 -65 -22 4 -55 18 -73 31 -158 115 -224 139 -365 132 -110 -6 -174 -30
-271 -103 -52 -38 -86 -56 -117 -61 -65 -9 -122 4 -161 38 l-34 30 0 663 c0
744 3 784 65 910 92 189 247 321 440 377 102 29 267 31 365 5 291 -78 491
-319 519 -624 9 -104 25 -137 76 -159 44 -18 59 -18 102 3 73 34 88 103 58
260 -52 276 -187 482 -414 635 -93 63 -158 92 -279 124 -281 73 -557 19 -806
-159 l-48 -35 -82 56 c-160 109 -314 160 -506 166 -63 3 -128 2 -145 0z m221
-255 c127 -22 248 -75 315 -136 l27 -25 -44 -82 c-24 -46 -53 -110 -65 -142
-25 -73 -49 -241 -49 -352 l0 -82 -492 2 -493 3 -3 90 c-4 125 18 230 74 343
134 273 439 433 730 381z m184 -1211 l0 -148 -495 0 -495 0 0 143 c0 79 2 146
4 148 2 2 225 4 495 4 l491 0 0 -147z m0 -528 l0 -130 -64 0 c-97 0 -178 -30
-271 -100 -85 -64 -129 -78 -204 -65 -22 4 -55 17 -73 30 -110 80 -139 97
-197 115 -35 11 -90 20 -122 20 l-59 0 0 130 0 130 495 0 495 0 0 -130z"/>
<path d="M529 1657 c-110 -74 -55 -227 81 -227 49 0 56 -3 154 -74 98 -70 174
-96 283 -96 126 0 194 26 317 120 58 44 61 45 136 45 l77 0 78 -59 c47 -36
105 -68 144 -82 125 -44 300 -26 393 41 144 103 147 105 213 105 66 0 69 -2
213 -105 93 -67 268 -85 393 -41 39 14 97 46 144 82 l78 59 77 0 77 0 76 -58
c101 -77 182 -107 298 -107 111 0 187 25 285 96 99 71 105 74 156 74 134 0
188 154 79 227 -39 26 -86 29 -176 9 -69 -15 -91 -26 -198 -101 -74 -52 -82
-55 -138 -55 -66 0 -120 22 -177 71 -54 47 -128 79 -213 91 -134 20 -253 -11
-354 -92 -65 -52 -109 -70 -170 -70 -61 0 -97 15 -160 65 -109 88 -223 118
-367 97 -84 -12 -138 -37 -213 -97 -70 -56 -101 -68 -174 -63 -62 4 -71 7
-163 70 -53 37 -114 72 -135 78 -149 42 -324 10 -425 -79 -57 -49 -111 -71
-177 -71 -56 0 -64 3 -138 55 -107 75 -129 86 -198 101 -90 20 -137 17 -176
-9z"/>
</g>
</svg>
