<?xml version="1.0" standalone="no"?>
<!DOCTYPE svg PUBLIC "-//W3C//DTD SVG 20010904//EN"
 "http://www.w3.org/TR/2001/REC-SVG-20010904/DTD/svg10.dtd">
<svg version="1.0" xmlns="http://www.w3.org/2000/svg"
 width="481.000000pt" height="519.000000pt" viewBox="0 0 481.000000 519.000000"
 preserveAspectRatio="xMidYMid meet">

<g transform="translate(0.000000,519.000000) scale(0.100000,-0.100000)"
fill="#000000" stroke="none">
<path d="M1685 3374 c-415 -26 -695 -99 -695 -180 0 -9 29 -44 64 -78 35 -33
66 -69 69 -78 3 -9 -4 -32 -16 -50 -35 -52 -169 -113 -340 -154 -241 -59 -267
-66 -313 -96 -24 -15 -50 -40 -56 -54 -12 -25 -10 -29 24 -58 79 -69 248 -106
513 -113 200 -6 375 7 660 49 172 25 293 22 349 -8 31 -16 49 -37 83 -100 73
-131 128 -174 275 -213 128 -35 234 -45 478 -44 259 0 407 11 700 49 492 64
778 165 900 319 55 70 53 111 -14 226 -100 170 -287 285 -625 385 -270 79
-609 136 -1071 179 -156 15 -842 28 -985 19z"/>
</g>
</svg>
