<?xml version="1.0" standalone="no"?>
<!DOCTYPE svg PUBLIC "-//W3C//DTD SVG 20010904//EN"
 "http://www.w3.org/TR/2001/REC-SVG-20010904/DTD/svg10.dtd">
<svg version="1.0" xmlns="http://www.w3.org/2000/svg"
 width="480.000000pt" height="519.000000pt" viewBox="0 0 480.000000 519.000000"
 preserveAspectRatio="xMidYMid meet">

<g transform="translate(0.000000,519.000000) scale(0.100000,-0.100000)"
fill="#000000" stroke="none">
<path d="M1234 4362 c-84 -29 -157 -102 -171 -171 -14 -62 -6 -2786 7 -2827
16 -47 62 -99 119 -132 39 -23 57 -27 121 -27 87 0 133 21 210 98 204 200 873
837 880 837 8 0 684 -644 875 -832 82 -82 127 -103 215 -103 64 0 82 4 121 27
57 34 103 85 120 135 20 55 21 2790 1 2844 -17 48 -85 117 -141 143 -46 21
-47 21 -1176 23 -1057 2 -1133 1 -1181 -15z m2226 -1548 c0 -790 -4 -1274 -9
-1272 -9 3 -317 296 -450 428 -58 58 -392 377 -521 499 -41 39 -77 71 -80 71
-3 0 -41 -34 -85 -76 -273 -260 -467 -446 -516 -494 -132 -131 -441 -425 -450
-428 -10 -4 -13 2531 -2 2541 3 4 480 7 1060 7 l1053 0 0 -1276z"/>
</g>
</svg>
