<?xml version="1.0" standalone="no"?>
<!DOCTYPE svg PUBLIC "-//W3C//DTD SVG 20010904//EN"
 "http://www.w3.org/TR/2001/REC-SVG-20010904/DTD/svg10.dtd">
<svg version="1.0" xmlns="http://www.w3.org/2000/svg"
 width="481.000000pt" height="519.000000pt" viewBox="0 0 481.000000 519.000000"
 preserveAspectRatio="xMidYMid meet">

<g transform="translate(0.000000,519.000000) scale(0.100000,-0.100000)"
fill="#000000" stroke="none">
<path d="M2216 4350 c-128 -15 -239 -39 -255 -54 -8 -9 -17 -34 -20 -56 l-6
-41 -100 -38 c-101 -38 -207 -89 -254 -121 -14 -9 -46 -30 -71 -45 -25 -16
-40 -30 -33 -32 6 -2 71 5 145 16 262 39 372 46 788 45 412 0 499 -5 778 -45
79 -11 146 -18 149 -15 3 2 -15 17 -39 32 -23 15 -55 35 -69 44 -47 32 -153
83 -254 121 l-100 38 -7 42 c-4 24 -14 49 -22 57 -38 38 -450 72 -630 52z"/>
<path d="M2052 3929 c-149 -9 -545 -47 -579 -56 l-23 -5 0 -245 0 -245 33 6
c18 3 232 10 477 16 427 9 1264 -1 1360 -16 l40 -7 0 246 0 245 -27 6 c-54 11
-420 46 -588 56 -194 11 -499 11 -693 -1z"/>
<path d="M1780 3319 c-113 -5 -233 -11 -267 -14 l-63 -7 0 -272 0 -273 113 -7
c546 -33 1108 -33 1680 0 l117 7 0 273 0 272 -72 6 c-288 25 -1072 32 -1508
15z"/>
<path d="M1452 2418 l3 -253 125 -17 c518 -71 1132 -71 1650 0 l125 17 3 253
2 253 -157 -8 c-202 -10 -1388 -10 -1596 0 l-157 7 2 -252z"/>
<path d="M1483 2056 c15 -12 17 -39 17 -297 0 -315 3 -332 56 -337 54 -5 64
16 64 129 0 54 2 99 5 99 2 0 39 -18 82 -39 87 -44 126 -58 263 -95 104 -28
271 -56 338 -56 l42 0 0 -110 c0 -98 2 -110 19 -120 28 -14 57 -12 75 6 13 12
16 38 16 118 l0 102 119 12 c181 18 386 74 524 143 43 21 80 39 82 39 3 0 5
-45 5 -99 0 -113 10 -134 64 -129 53 5 56 22 56 337 0 258 2 285 18 297 15 12
15 13 -9 14 -14 0 -74 -7 -134 -15 -406 -57 -1155 -57 -1559 0 -60 8 -121 15
-135 15 -24 -1 -24 -2 -8 -14z m202 -122 c63 -29 63 -28 -17 -70 l-48 -24 0
60 c0 33 2 60 4 60 2 0 29 -12 61 -26z m1505 -35 l0 -60 -60 32 c-33 18 -58
34 -56 37 7 6 99 50 109 51 4 1 7 -26 7 -60z m-1237 -68 c56 -16 169 -37 250
-47 l147 -17 0 -109 0 -108 -49 0 c-86 0 -282 39 -406 81 -123 42 -236 96
-238 114 0 7 108 72 190 114 2 0 49 -12 106 -28z m1104 -23 c50 -26 94 -52 97
-57 10 -16 -110 -76 -239 -120 -124 -42 -320 -81 -406 -81 l-49 0 0 109 0 109
68 7 c135 14 259 35 337 59 44 13 85 23 90 23 6 -1 51 -23 102 -49z"/>
</g>
</svg>
